<?xml version="1.0" encoding="utf-8"?>
<!-- Generator: Adobe Adobe Illustrator 29.1.0, SVG Export Plug-In . SVG Version: 6.00 Build 0)  -->
<svg version="1.1" id="Layer_1" xmlns="http://www.w3.org/2000/svg" xmlns:xlink="http://www.w3.org/1999/xlink" x="0px" y="0px"
	 width="500px" height="98.76px" viewBox="0 0 500 98.76" style="enable-background:new 0 0 500 98.76;" xml:space="preserve">
<style type="text/css">
	.st0{fill:#114C92;}
</style>
<g>
	<path class="st0" d="M185.78,37.35v59.48c0,1.07-0.87,1.94-1.94,1.94h-17.59c-1.07,0-1.94-0.87-1.94-1.94V77.46
		c0-1.07-0.87-1.94-1.94-1.94h-25.76c-1.07,0-1.94,0.87-1.94,1.94v19.37c0,1.07-0.87,1.94-1.94,1.94h-17.59
		c-1.07,0-1.94-0.87-1.94-1.94V37.35c0-1.07,0.87-1.94,1.94-1.94h17.59c1.07,0,1.94,0.87,1.94,1.94v19.26
		c0,1.07,0.87,1.94,1.94,1.94h25.76c1.07,0,1.94-0.87,1.94-1.94V37.35c0-1.07,0.87-1.94,1.94-1.94h17.59
		C184.91,35.41,185.78,36.28,185.78,37.35z"/>
	<path class="st0" d="M197.13,35.41h17.59c1.07,0,1.94,0.87,1.94,1.94v59.48c0,1.07-0.87,1.94-1.94,1.94h-17.59
		c-1.07,0-1.94-0.87-1.94-1.94V37.35C195.19,36.28,196.06,35.41,197.13,35.41z"/>
	<path class="st0" d="M248.07,54.31v2.3c0,1.07,0.87,1.94,1.94,1.94h34.87c1.07,0,1.94,0.87,1.94,1.94v13.09
		c0,1.07-0.87,1.94-1.94,1.94h-34.87c-1.07,0-1.94,0.87-1.94,1.94v19.37c0,1.07-0.87,1.94-1.94,1.94h-17.59
		c-1.07,0-1.94-0.87-1.94-1.94V37.35c0-1.07,0.87-1.94,1.94-1.94h56.33c1.07,0,1.94,0.87,1.94,1.94v13.09
		c0,1.07-0.87,1.94-1.94,1.94h-34.87C248.94,52.37,248.07,53.24,248.07,54.31z"/>
	<path class="st0" d="M312.31,52.37h-17.27c-1.07,0-1.94-0.87-1.94-1.94V37.35c0-1.07,0.87-1.94,1.94-1.94h59.89
		c1.07,0,1.94,0.87,1.94,1.94v13.09c0,1.07-0.87,1.94-1.94,1.94h-17.27c-1.07,0-1.94,0.87-1.94,1.94v42.51
		c0,1.07-0.87,1.94-1.94,1.94h-17.59c-1.07,0-1.94-0.87-1.94-1.94V54.31C314.25,53.24,313.38,52.37,312.31,52.37z"/>
	<path class="st0" d="M385.13,54.31v2.3c0,1.07,0.87,1.94,1.94,1.94h34.87c1.07,0,1.94,0.87,1.94,1.94v13.09
		c0,1.07-0.87,1.94-1.94,1.94h-34.87c-1.07,0-1.94,0.87-1.94,1.94v2.41c0,1.07,0.87,1.94,1.94,1.94h34.87
		c1.07,0,1.94,0.87,1.94,1.94v13.09c0,1.07-0.87,1.94-1.94,1.94H365.6c-1.07,0-1.94-0.87-1.94-1.94V37.35
		c0-1.07,0.87-1.94,1.94-1.94h56.33c1.07,0,1.94,0.87,1.94,1.94v13.09c0,1.07-0.87,1.94-1.94,1.94h-34.87
		C386,52.37,385.13,53.24,385.13,54.31z"/>
	<path class="st0" d="M487.01,76.56l11.11,19.3c0.74,1.29-0.19,2.91-1.68,2.91h-18.11c-0.71,0-1.37-0.39-1.7-1.01l-11.57-21.32
		c-0.34-0.63-0.99-1.01-1.7-1.01h-6.65c-1.07,0-1.94,0.87-1.94,1.94v19.47c0,1.07-0.87,1.94-1.94,1.94h-17.59
		c-1.07,0-1.94-0.87-1.94-1.94V37.35c0-1.07,0.87-1.94,1.94-1.94h43.61C489,35.41,500,41.48,500,55.2c0,8.79-5.14,15.66-12.08,18.63
		C486.85,74.28,486.43,75.56,487.01,76.56z M454.76,56.72c0,1.07,0.87,1.94,1.94,1.94h19.32c1.68,0,3.14-1.47,3.14-3.25
		c0-2.09-1.47-3.14-3.14-3.14H456.7c-1.07,0-1.94,0.87-1.94,1.94V56.72z"/>
	<path class="st0" d="M105.35,75.42c0,13.92-10.47,23.35-24.08,23.35H15.12c-2.13,0-3.88-1.75-3.88-3.88V28.38H1.95
		c-1.63,0-2.54-1.86-1.53-3.14L19.56,0.74c0.78-0.99,2.29-0.99,3.06,0l19.14,24.49c0.99,1.28,0.08,3.14-1.53,3.14h-9.6v49.08
		c0,1.07,0.87,1.94,1.94,1.94h43.46c3.26,0,4.83-1.47,4.83-3.88c0-2.31-1.57-3.76-4.93-3.76H58.56c-12.26,0-22.2-8.38-22.2-23.15
		c0-16.97,11.62-23.13,23.35-23.13h41.42c1.07,0,1.94,0.85,1.94,1.94V42.9c0,1.07-0.87,1.94-1.94,1.94H65.68
		c-2.83,0-4.83,1.05-4.83,3.67c0,2.71,2,3.88,4.83,3.88H82C96.04,52.38,105.35,60.64,105.35,75.42z"/>
	<path class="st0" d="M105.35,75.42c0,13.92-10.47,23.35-24.08,23.35H15.12c-2.13,0-3.88-1.75-3.88-3.88V28.38H1.95
		c-1.63,0-2.54-1.86-1.53-3.14L19.56,0.74c0.78-0.99,2.29-0.99,3.06,0l19.14,24.49c0.99,1.28,0.08,3.14-1.53,3.14h-9.6v49.08
		c0,1.07,0.87,1.94,1.94,1.94h43.46c3.26,0,4.83-1.47,4.83-3.88c0-2.31-1.57-3.76-4.93-3.76H58.56c-12.26,0-22.2-8.38-22.2-23.15
		c0-16.97,11.62-23.13,23.35-23.13h41.42c1.07,0,1.94,0.85,1.94,1.94V42.9c0,1.07-0.87,1.94-1.94,1.94H65.68
		c-2.83,0-4.83,1.05-4.83,3.67c0,2.71,2,3.88,4.83,3.88H82C96.04,52.38,105.35,60.64,105.35,75.42z"/>
</g>
</svg>
