<?xml version="1.0" encoding="utf-8"?>
<!-- Generator: Adobe Adobe Illustrator 29.1.0, SVG Export Plug-In . SVG Version: 6.00 Build 0)  -->
<svg version="1.1" id="Layer_1" xmlns="http://www.w3.org/2000/svg" xmlns:xlink="http://www.w3.org/1999/xlink" x="0px" y="0px"
	 width="500px" height="500px" viewBox="0 0 500 500" style="enable-background:new 0 0 500 500;" xml:space="preserve">
<style type="text/css">
	.st0{fill:#114C92;}
	.st1{fill:#FFFFFF;}
</style>
<g>
	<path class="st0" d="M0,450V50C0,22.39,22.39,0,50,0h400c27.61,0,50,22.39,50,50v400c0,27.61-22.39,50-50,50H50
		C22.39,500,0,477.61,0,450z"/>
	<path class="st1" d="M450,323.86c0,52.86-39.76,88.65-91.44,88.65H107.41c-8.1,0-14.73-6.63-14.73-14.73V145.24H57.42
		c-6.18,0-9.65-7.07-5.82-11.93l72.67-92.99c2.94-3.76,8.69-3.76,11.63,0l72.67,92.99c3.75,4.86,0.29,11.93-5.82,11.93h-36.45
		v186.35c0,4.05,3.31,7.36,7.36,7.36h165c12.37,0,18.33-5.6,18.33-14.73c0-8.76-5.96-14.28-18.7-14.28h-65.97
		c-46.53,0-84.3-31.81-84.3-87.91c0-64.42,44.1-87.84,88.65-87.84h157.27c4.05,0,7.36,3.24,7.36,7.36v58.83
		c0,4.05-3.31,7.36-7.36,7.36H299.36c-10.75,0-18.33,3.98-18.33,13.92c0,10.31,7.58,14.73,18.33,14.73h61.99
		C414.66,236.39,450,267.75,450,323.86z"/>
</g>
</svg>
