<?xml version="1.0" encoding="UTF-8" standalone="no"?>
<!-- Created with Inkscape (http://www.inkscape.org/) -->

<svg
   version="1.1"
   id="svg1848"
   width="122.52879"
   height="29.64702"
   xmlns:inkscape="http://www.inkscape.org/namespaces/inkscape"
   xmlns:sodipodi="http://sodipodi.sourceforge.net/DTD/sodipodi-0.dtd"
   xmlns="http://www.w3.org/2000/svg"
   xmlns:svg="http://www.w3.org/2000/svg">
  <defs
     id="defs1852" />
  <sodipodi:namedview
     id="namedview1850"
     pagecolor="#ffffff"
     bordercolor="#666666"
     borderopacity="1.0"
     inkscape:pageshadow="2"
     inkscape:pageopacity="0.0"
     inkscape:pagecheckerboard="0" />
  <inkscape:clipboard
     style="font-variation-settings:normal;opacity:1;vector-effect:none;fill:#114c92;fill-opacity:1;stroke-width:0.92071184;stroke-linecap:butt;stroke-linejoin:miter;stroke-miterlimit:4;stroke-dasharray:none;stroke-dashoffset:0;stroke-opacity:1;-inkscape-stroke:none;stop-color:#000000;stop-opacity:1"
     min="-6776.4934,4259.3047"
     max="-6653.9646,4288.9517"
     geom-min="-6776.4934,4259.3047"
     geom-max="-6653.9646,4288.9517" />
  <g
     id="g1854"
     transform="matrix(3.7795275,0,0,3.7795275,6776.4933,-4259.3047)">
    <g
       aria-label="Shifter"
       id="g1294"
       style="font-size:120.182px;line-height:1.25;fill:#114c92;stroke-width:3.00454"
       transform="matrix(0.08107897,0,0,0.08107897,-1681.8097,1074.0688)">
      <path
         d="m -1314.4866,707.39166 q 1.9229,2.52382 3.0046,5.16783 1.0816,2.644 1.5623,5.288 0.1202,0.84128 0.1202,1.80273 0.1202,0.84128 0.1202,1.68255 0,5.88892 -3.0045,11.41729 -2.8844,5.40819 -8.1724,9.3742 -4.0862,3.12473 -9.4944,4.92746 -5.288,1.80273 -11.2971,1.80273 -2.1633,0 -4.5669,-0.24036 -2.2835,-0.24037 -4.5669,-0.60091 -5.4082,-1.08164 -10.5761,-3.3651 -5.1678,-2.28346 -9.3741,-5.52837 v -14.0613 q 0.721,0.36055 1.4421,0.84128 0.7211,0.36054 1.4422,0.72109 3.0046,1.56237 6.0091,2.644 3.0046,1.08164 6.3697,1.32201 0.6009,0.12018 1.0816,0.12018 0.6009,0 1.0816,0 2.0431,0 3.7257,-0.48073 1.6825,-0.48073 2.644,-1.322 1.322,-1.20182 1.9229,-2.40364 0.6009,-1.322 0.6009,-2.52382 0,-1.80273 -0.8413,-3.60546 -0.8412,-1.80273 -2.0431,-3.48528 -4.4467,-6.12928 -8.7732,-12.25857 -4.3266,-6.12928 -8.6531,-12.37874 -1.5624,-2.28346 -2.6441,-4.56692 -0.9614,-2.28346 -1.4421,-4.56691 -0.2404,-1.08164 -0.3606,-2.28346 -0.1202,-1.20182 -0.1202,-2.28346 0,-10.45583 8.6531,-18.38785 8.6531,-8.05219 20.3108,-8.05219 1.322,0 2.644,0.12018 1.322,0.12018 2.644,0.24037 5.5284,0.72109 10.8164,3.00455 5.288,2.28345 9.3742,5.88891 v 14.18148 q -3.1247,-2.04309 -6.4898,-3.72564 -3.245,-1.68255 -7.0908,-2.0431 -0.1202,0 -0.3605,0 -0.2404,0 -0.3606,-0.12018 -0.2403,0 -0.4807,0 -0.1202,0 -0.3605,0 -2.5239,0.12018 -4.6871,1.20182 -2.0431,1.08164 -2.0431,3.72564 0,0.48073 0.1201,0.96146 0.1202,0.36055 0.2404,0.96146 0.6009,1.92291 2.1633,4.56691 1.6825,2.52382 3.966,5.64856 2.0431,2.52382 3.966,5.16782 1.9229,2.52382 3.966,5.16783 1.9229,2.644 3.8458,5.28801 2.0431,2.52382 3.966,5.04764 z"
         style="font-family:Unicorn;-inkscape-font-specification:'Unicorn, Normal'"
         id="path1347" />
      <path
         d="m -1222.6674,731.90879 q -1.5624,1.20182 -3.1247,2.40364 -1.5624,1.20182 -3.245,2.52382 -5.6485,4.44673 -12.0182,8.05219 -6.2494,3.60546 -13.22,3.60546 -6.2494,0 -10.6962,-3.48527 -4.4467,-3.60546 -4.4467,-10.09529 0,-9.01365 0,-18.0273 0,-9.01365 0,-18.0273 0,-3.00455 -1.6826,-4.44674 -1.6825,-1.44218 -3.966,-1.44218 -0.4807,0 -0.9614,0.12018 -0.3606,0.12018 -0.7211,0.12018 -0.4807,0.12019 -0.9615,0.24037 -0.3605,0.12018 -0.8412,0.36054 v 54.44245 h -28.6034 v -91.69887 h 28.6034 v 24.27677 q 3.6054,-2.40364 8.2925,-3.96601 4.6871,-1.56236 9.4944,-1.80273 0.6009,-0.12018 1.0816,-0.12018 0.6009,0 1.2019,0 3.3651,0 6.4898,0.72109 3.2449,0.72109 6.0091,2.40364 2.8844,1.68255 4.6871,4.44674 1.9229,2.644 1.9229,6.0091 0,5.04764 0,10.21547 0,5.04764 0,10.09528 -0.1202,5.04765 -0.1202,10.21547 0,5.04765 0,10.09529 0,0.48073 0.3606,0.84128 0.3605,0.24036 0.8412,0.12018 0.7211,0 1.6826,-0.24037 0.9614,-0.36054 1.9229,-0.84127 0.2404,-0.12018 0.4807,-0.24036 0.3606,-0.12019 0.7211,-0.36055 0.3606,-0.12018 0.7211,-0.36055 0.4807,-0.24036 0.8413,-0.36054 l 9.254,-4.80728 z"
         style="font-family:Unicorn;-inkscape-font-specification:'Unicorn, Normal'"
         id="path1344" />
      <path
         d="m -1180.8441,731.90879 q -1.5624,1.20182 -3.2449,2.52382 -1.6826,1.20182 -3.3651,2.52382 -5.5284,4.20637 -11.6577,7.69165 -6.0091,3.48528 -12.4989,3.48528 -6.2495,0 -11.1769,-3.48528 -4.8073,-3.48528 -4.8073,-10.09529 v -59.36991 h 30.8868 q 0,6.61001 0,13.34021 0,6.73019 0,13.3402 0,6.73019 0,13.46038 0,6.61001 0,13.3402 0,0.60091 0.3605,0.96146 0.3605,0.24036 0.9615,0.24036 0.4807,0 0.9614,-0.12018 0.6009,-0.24036 1.2018,-0.48073 0.3606,-0.12018 0.6009,-0.24036 0.3606,-0.12018 0.601,-0.24036 0.721,-0.36055 1.2018,-0.60091 0.6009,-0.36055 0.8412,-0.48073 l 9.1339,-4.80728 z m -15.864,-61.89373 h -30.8868 v -13.46039 h 30.8868 q 0,1.68255 0,3.3651 0,1.68255 0,3.3651 0,1.68254 0,3.36509 0,1.68255 0,3.3651 z"
         style="font-family:Unicorn;-inkscape-font-specification:'Unicorn, Normal'"
         id="path1341" />
      <path
         d="m -1132.651,731.90879 -23.6759,16.34475 h -29.5647 v -78.35866 q 0,-3.60546 1.8027,-6.7302 1.8027,-3.12473 4.8073,-5.40819 3.3651,-2.52382 7.2109,-3.60546 3.966,-1.08163 8.0522,-1.08163 0.4807,0 0.9614,0 0.4808,0 0.9615,0 4.2064,0.24036 8.2925,1.56236 4.0862,1.20182 7.6917,3.3651 v 12.25856 h -7.932 v 6.85038 h 8.4127 v 16.22457 h -8.4127 v 40.98206 l 21.3924,-11.41729 z"
         style="font-family:Unicorn;-inkscape-font-specification:'Unicorn, Normal'"
         id="path1338" />
      <path
         d="m -1085.6599,731.90879 -14.7824,12.0182 q -2.4037,1.92291 -7.2109,3.12473 -4.8073,1.20182 -10.0953,1.20182 -7.2109,0 -13.3402,-2.76419 -6.0091,-2.88436 -6.2495,-10.09528 0,-0.12019 0,-0.12019 0,0 0,-0.12018 0,-0.12018 0,-0.24036 0,-0.12018 0,-0.24037 v -72.46974 h 30.7666 v 13.22002 h 9.8549 V 691.768 h -9.8549 q 0,9.61456 0,19.22912 0,9.61456 0,19.22912 0,0.48073 0.3605,0.60091 0.4808,0.12018 0.9615,0.24036 0.2404,0 0.4807,0 0.2404,0 0.4808,-0.12018 0.2403,0 0.4807,0 0.3605,-0.12018 0.6009,-0.12018 0.3605,-0.12018 0.6009,-0.12018 0.2404,-0.12018 0.3605,-0.12018 2.4037,-0.60091 4.6871,-1.56237 2.2835,-1.08164 4.4468,-2.28346 l 7.4513,-3.84582 z"
         style="font-family:Unicorn;-inkscape-font-specification:'Unicorn, Normal'"
         id="path1335" />
      <path
         d="m -1029.1744,731.90879 q -1.8027,1.322 -3.4853,2.52382 -1.5623,1.20182 -3.1247,2.28346 -2.4036,1.68255 -5.0476,3.12473 -2.5239,1.322 -5.889,2.76419 -0.3605,0.12018 -0.8412,0.36054 -0.3606,0.12018 -0.7211,0.24037 -4.8073,1.92291 -9.9751,3.48527 -5.0477,1.56237 -10.3357,1.56237 -1.322,0 -2.7642,-0.12018 -1.4422,-0.12018 -2.8843,-0.36055 -5.6486,-0.96145 -10.5761,-4.08619 -4.9274,-3.12473 -6.0091,-9.25401 -0.1201,-0.72109 -0.2403,-1.44218 0,-0.7211 0,-1.44219 0,-8.53292 0,-16.94566 0,-8.53292 0,-16.94566 0,-10.33565 7.8118,-16.7053 7.8118,-6.48983 17.6668,-6.48983 10.0953,0 17.9071,5.40819 7.8118,5.40819 7.6916,16.46494 0,1.08163 -0.1201,2.16327 -0.1202,0.96146 -0.2404,2.0431 -1.4422,8.6531 -7.6917,16.10438 -6.1292,7.45129 -14.6622,9.13384 0,0.60091 0,1.322 0,0.60091 0,1.20182 0,3.12473 1.6826,4.32655 1.6825,1.20182 4.3265,1.20182 0.9615,0 1.8028,-0.12018 0.9614,-0.24037 1.9229,-0.36055 5.0476,-0.96145 9.7347,-3.12473 4.6871,-2.28346 9.254,-4.6871 1.2019,-0.72109 2.4037,-1.322 1.2018,-0.72109 2.4036,-1.322 z m -20.5511,-32.68951 q 0.1202,-0.84127 0.1202,-1.68254 0.1202,-0.96146 0.1202,-1.80273 0,-0.36055 0,-0.60091 0,-0.36055 0,-0.60091 -0.2404,-3.3651 -1.6826,-6.12929 -1.4422,-2.76418 -5.288,-2.76418 -2.0431,0 -3.3651,0.84127 -1.2018,0.72109 -2.2835,2.28346 -0.1201,0.24036 -0.3605,0.48073 -0.1202,0.24036 -0.2404,0.48073 v 23.91621 q 5.1679,-0.72109 8.533,-4.80728 3.3651,-4.08618 4.3265,-8.89346 0,-0.12019 0,-0.24037 0.1202,-0.24036 0.1202,-0.48073 z"
         style="font-family:Unicorn;-inkscape-font-specification:'Unicorn, Normal'"
         id="path1332" />
      <path
         d="m -970.88603,731.90879 q -2.04309,1.44218 -3.96601,2.76418 -1.80273,1.32201 -3.60546,2.52383 -2.88436,1.80273 -5.88891,3.36509 -2.88437,1.44219 -6.48983,2.88437 -4.80728,1.92291 -9.85496,3.48528 -5.0476,1.44218 -10.3356,1.44218 -1.0817,0 -2.1633,-0.12018 -1.0816,0 -2.1633,0 -6.8503,-0.96146 -12.6191,-4.80728 -5.6485,-3.96601 -5.6485,-11.77784 v -56.24517 h 28.3629 q 0,2.16327 0,4.32655 0,2.16328 0,4.44673 4.2064,-3.72564 9.13385,-5.40819 4.92746,-1.80273 10.21547,-2.88436 v 29.56477 q -0.12018,-0.12018 -0.24036,-0.12018 0,-0.12019 0,-0.24037 -2.88437,-3.24491 -6.0091,-5.88892 -3.12473,-2.76418 -7.21092,-2.76418 -1.32204,0 -2.76414,0.36054 -1.4422,0.36055 -3.1248,1.20182 0,7.69165 0,15.26312 0,7.57146 0,15.14293 0,3.12473 1.6826,4.44673 1.8027,1.20182 4.4467,1.20182 0.60091,0 1.20182,0 0.60091,-0.12018 1.20182,-0.24036 0.24037,-0.12018 0.60091,-0.12018 0.36055,-0.12018 0.60091,-0.12018 0.84128,-0.12019 1.56237,-0.36055 0.84127,-0.24036 1.56236,-0.36055 4.08619,-1.20182 7.93201,-3.00455 3.96601,-1.92291 7.81183,-3.966 1.44219,-0.72109 2.88437,-1.44219 1.44219,-0.84127 2.88437,-1.56236 z"
         style="font-family:Unicorn;-inkscape-font-specification:'Unicorn, Normal'"
         id="path1329" />
    </g>
  </g>
</svg>
