<?xml version="1.0" encoding="utf-8"?>
<!-- Generator: Adobe Adobe Illustrator 29.1.0, SVG Export Plug-In . SVG Version: 6.00 Build 0)  -->
<svg version="1.1" id="Layer_1" xmlns="http://www.w3.org/2000/svg" xmlns:xlink="http://www.w3.org/1999/xlink" x="0px" y="0px"
	 width="500px" height="500px" viewBox="0 0 500 500" style="enable-background:new 0 0 500 500;" xml:space="preserve">
<style type="text/css">
	.st0{fill:#114C92;}
</style>
<path class="st0" d="M467.52,0H31.17C13.95,0,0,13.95,0,31.17v436.35c0,17.22,13.95,31.17,31.17,31.17h436.35
	c17.22,0,31.17-13.95,31.17-31.17V31.17C498.68,13.95,484.73,0,467.52,0z M360.42,420.36H131.35c-7.39,0-13.44-6.05-13.44-13.43
	V176.58H85.75c-5.64,0-8.79-6.45-5.3-10.88l66.27-84.81c2.69-3.43,7.93-3.43,10.62,0l66.27,84.81c3.43,4.44,0.27,10.88-5.3,10.88
	h-33.25v169.98c0,3.69,3.03,6.72,6.72,6.72h150.5c11.28,0,16.72-5.11,16.72-13.44c0-7.99-5.44-13.03-17.05-13.03h-60.18
	c-42.44,0-76.9-29.01-76.9-80.19c0-58.76,40.23-80.11,80.86-80.11h143.45c3.7,0,6.72,2.95,6.72,6.72v53.66
	c0,3.69-3.02,6.71-6.72,6.71H306.43c-9.8,0-16.72,3.63-16.72,12.7c0,9.4,6.92,13.43,16.72,13.43h56.55
	c48.62,0,80.86,28.61,80.86,79.78C443.84,387.73,407.57,420.36,360.42,420.36z"/>
</svg>
